<svg width="64" height="64" viewBox="0 0 64 64" fill="none" xmlns="http://www.w3.org/2000/svg">
<path d="M60.7101 21.65L47.0001 7.93998C46.9066 7.8473 46.7958 7.77397 46.674 7.72421C46.5521 7.67444 46.4217 7.64922 46.2901 7.64998H40.0701C39.8048 7.64998 39.5505 7.75534 39.363 7.94287C39.1754 8.13041 39.0701 8.38476 39.0701 8.64998C39.0701 10.5251 38.3252 12.3233 36.9993 13.6492C35.6734 14.9751 33.8751 15.72 32.0001 15.72C30.125 15.72 28.3267 14.9751 27.0008 13.6492C25.6749 12.3233 24.9301 10.5251 24.9301 8.64998C24.9301 8.38476 24.8247 8.13041 24.6372 7.94287C24.4496 7.75534 24.1953 7.64998 23.9301 7.64998H17.7101C17.5785 7.64922 17.448 7.67444 17.3262 7.72421C17.2043 7.77397 17.0935 7.8473 17.0001 7.93998L3.29006 21.65C3.10381 21.8373 2.99927 22.0908 2.99927 22.355C2.99927 22.6192 3.10381 22.8726 3.29006 23.06L11.4101 31.18C11.5974 31.3662 11.8509 31.4708 12.1151 31.4708C12.3792 31.4708 12.6327 31.3662 12.8201 31.18L16.7101 27.29V55.35C16.7101 55.6152 16.8154 55.8696 17.003 56.0571C17.1905 56.2446 17.4448 56.35 17.7101 56.35H46.2901C46.5553 56.35 46.8096 56.2446 46.9972 56.0571C47.1847 55.8696 47.2901 55.6152 47.2901 55.35V27.29L51.1801 31.18C51.3674 31.3662 51.6209 31.4708 51.8851 31.4708C52.1492 31.4708 52.4027 31.3662 52.5901 31.18L60.7101 23.06C60.8027 22.9665 60.8761 22.8557 60.9258 22.7339C60.9756 22.612 61.0008 22.4816 61.0001 22.35C60.999 22.0876 60.8948 21.8362 60.7101 21.65ZM51.8901 29.05L47.0001 24.17C46.8551 24.0379 46.6744 23.9513 46.4806 23.9211C46.2868 23.8909 46.0884 23.9183 45.9101 24C45.7274 24.075 45.5711 24.2024 45.4608 24.3661C45.3504 24.5298 45.291 24.7226 45.2901 24.92V54.35H18.7101V24.87C18.7092 24.6722 18.6498 24.4791 18.5392 24.3151C18.4286 24.1512 18.2719 24.0236 18.0889 23.9487C17.9059 23.8738 17.7047 23.8548 17.5109 23.8942C17.3171 23.9336 17.1393 24.0296 17.0001 24.17L12.1101 29.05L5.41006 22.35L18.1201 9.64998H23.0001C23.2914 11.8304 24.3645 13.831 26.0198 15.2798C27.6752 16.7287 29.8002 17.5273 32.0001 17.5273C34.1999 17.5273 36.3249 16.7287 37.9803 15.2798C39.6356 13.831 40.7087 11.8304 41.0001 9.64998H45.8601L58.5701 22.35L51.8901 29.05Z" fill="black" id="id_102"></path>
</svg>