<?xml version="1.0" encoding="UTF-8" standalone="no"?> <svg id="Layer_1" data-name="Layer 1" xmlns="http://www.w3.org/2000/svg" viewBox="0 0 64 64"><title>print</title><path d="M56,46H46a1,1,0,0,1-1-1V40H19v5a1,1,0,0,1-1,1H8a5,5,0,0,1-5-5V23a5,5,0,0,1,5-5H56a5,5,0,0,1,5,5V41A5,5,0,0,1,56,46Zm-9-2h9a3,3,0,0,0,3-3V23a3,3,0,0,0-3-3H8a3,3,0,0,0-3,3V41a3,3,0,0,0,3,3h9V39a1,1,0,0,1,1-1H46a1,1,0,0,1,1,1Z"/><path d="M50,20H14a1,1,0,0,1-1-1V9a3,3,0,0,1,3-3H48a3,3,0,0,1,3,3V19A1,1,0,0,1,50,20ZM15,18H49V9a1,1,0,0,0-1-1H16a1,1,0,0,0-1,1Z"/><path d="M48,29H42a3,3,0,0,1,0-6h6a3,3,0,0,1,0,6Zm-6-4a1,1,0,0,0,0,2h6a1,1,0,0,0,0-2Z"/><path d="M46,56H18a1,1,0,0,1-1-1V39a1,1,0,0,1,1-1H46a1,1,0,0,1,1,1V55A1,1,0,0,1,46,56ZM19,54H45V40H19Z"/><path d="M18,46H14a1,1,0,0,1-1-1V41a3,3,0,0,1,3-3h2a1,1,0,0,1,1,1v6A1,1,0,0,1,18,46Zm-3-2h2V40H16a1,1,0,0,0-1,1Z"/><path d="M50,46H46a1,1,0,0,1-1-1V39a1,1,0,0,1,1-1h2a3,3,0,0,1,3,3v4A1,1,0,0,1,50,46Zm-3-2h2V41a1,1,0,0,0-1-1H47Z"/></svg>