<?xml version="1.0" encoding="iso-8859-1"?>
<!-- Generator: Adobe Illustrator 22.1.0, SVG Export Plug-In . SVG Version: 6.00 Build 0)  -->
<svg version="1.1" xmlns="http://www.w3.org/2000/svg" xmlns:xlink="http://www.w3.org/1999/xlink" x="0px" y="0px"
	 viewBox="0 0 50 50" style="enable-background:new 0 0 50 50;" xml:space="preserve">
<g id="Layer_1">
	<path d="M1,15v2v12v2v14h2v4h6v-4h32v4h6v-4h2V31v-2V17v-2V1H1V15z M7,47H5v-2h2V47z M45,47h-2v-2h2V47z M47,43h-6H9H3V31h44V43z
		 M47,29H3V17h44V29z M3,3h44v12H3V3z"/>
	<polygon points="30,10 20,10 20,8 18,8 18,12 32,12 32,8 30,8 	"/>
	<polygon points="32,22 30,22 30,24 20,24 20,22 18,22 18,26 32,26 	"/>
	<polygon points="32,36 30,36 30,38 20,38 20,36 18,36 18,40 32,40 	"/>
</g>
<g>
</g>
</svg>
